<?xml version="1.0" encoding="UTF-8"?>
<!DOCTYPE svg PUBLIC "-//W3C//DTD SVG 1.1//EN" "http://www.w3.org/Graphics/SVG/1.1/DTD/svg11.dtd">
<!-- Creator: CorelDRAW 2020 (64-Bit) -->
<svg xmlns="http://www.w3.org/2000/svg" xml:space="preserve" width="0.743882in" height="0.742374in" version="1.1" style="shape-rendering:geometricPrecision; text-rendering:geometricPrecision; image-rendering:optimizeQuality; fill-rule:evenodd; clip-rule:evenodd"
viewBox="0 0 17.34 17.31"
 xmlns:xlink="http://www.w3.org/1999/xlink"
 xmlns:xodm="http://www.corel.com/coreldraw/odm/2003">
 <defs>
  <style type="text/css">
   <![CDATA[
    .fil0 {fill:#fff}
   ]]>
  </style>
 </defs>
 <g id="Layer_x0020_1">
  <metadata id="CorelCorpID_0Corel-Layer"/>
  <path class="fil0" d="M1.11 4.64c-0.22,0.07 -0.26,0.24 -0.36,0.47 -0.09,0.2 -0.16,0.38 -0.24,0.59 -0.5,1.35 -0.64,2.93 -0.4,4.36 0.11,0.68 0.29,1.3 0.55,1.92 0.11,0.27 0.16,0.32 0.52,0.32 0.36,-0 3.99,0.02 4.13,-0.01 0.21,-0.04 0.33,-0.28 0.2,-0.51 -1.27,-2.25 -2.64,-4.57 -3.94,-6.83 -0.09,-0.16 -0.2,-0.39 -0.46,-0.31z"/>
  <path class="fil0" d="M11.99 5.02c-0.47,0.17 -0.05,0.68 0.15,1.04 0.2,0.35 0.41,0.71 0.61,1.06l3.03 5.24c0.09,0.17 0.21,0.39 0.48,0.29 0.19,-0.07 0.25,-0.31 0.34,-0.5 0.96,-2.09 0.99,-4.63 0.07,-6.85 -0.12,-0.28 -0.18,-0.3 -0.53,-0.3 -0.28,0 -0.56,0 -0.83,0 -0.41,-0 -3.16,-0.04 -3.31,0.02z"/>
  <path class="fil0" d="M1.66 12.97c-0.58,0.16 -0.02,0.76 0.15,0.99 0.19,0.26 0.38,0.45 0.57,0.66 1.22,1.38 3.19,2.36 5.12,2.63 0.37,0.05 0.41,0.02 0.56,-0.23l2.08 -3.62c0.09,-0.27 -0.1,-0.44 -0.35,-0.44 -0.54,-0.01 -1.1,0 -1.64,0 -0.35,0 -6.32,-0.03 -6.49,0.01z"/>
  <path class="fil0" d="M13.14 9.66c-0.17,0.06 -0.29,0.34 -0.38,0.51l-1 1.73c-0.86,1.51 -1.81,3.08 -2.65,4.58 -0.09,0.16 -0.31,0.42 -0.2,0.64 0.13,0.25 0.39,0.18 0.69,0.15 2.47,-0.27 4.53,-1.56 5.84,-3.2 0.06,-0.08 0.14,-0.17 0.19,-0.25 0.06,-0.1 0.09,-0.23 0.03,-0.35 -0.04,-0.09 -0.11,-0.2 -0.16,-0.28l-1.84 -3.18c-0.1,-0.18 -0.21,-0.46 -0.52,-0.35z"/>
  <path class="fil0" d="M8 0.01c-1.42,0.11 -2.93,0.61 -4.05,1.37 -0.51,0.34 -0.6,0.44 -1.04,0.78 -0.17,0.13 -0.75,0.75 -0.88,0.91 -0.53,0.63 -0.45,0.56 -0.11,1.17 0.43,0.77 0.9,1.53 1.33,2.31 0.12,0.21 0.53,1.03 0.71,1.09 0.31,0.11 0.42,-0.16 0.53,-0.34l2.98 -5.16c0.09,-0.15 0.97,-1.65 0.99,-1.74 0.03,-0.14 -0.04,-0.25 -0.11,-0.32 -0.1,-0.09 -0.2,-0.08 -0.35,-0.07z"/>
  <path class="fil0" d="M9.51 0.06c-0.14,0.06 -0.13,0.07 -0.21,0.2 -0.06,0.09 -0.1,0.16 -0.15,0.26l-1.79 3.1c-0.09,0.16 -0.28,0.39 -0.11,0.6 0.14,0.18 0.4,0.13 0.67,0.13l7.34 0c0.28,0 0.53,0.04 0.64,-0.16 0.13,-0.24 -0.07,-0.45 -0.17,-0.59 -0.44,-0.61 -0.64,-0.79 -1.15,-1.3l-0.33 -0.3c-0.59,-0.49 -1.32,-0.96 -2.14,-1.32 -0.37,-0.16 -2.2,-0.79 -2.6,-0.63z"/>
 </g>
</svg>
